<svg width="40" height="40" viewBox="0 0 40 40" fill="none" xmlns="http://www.w3.org/2000/svg">
<path fill-rule="evenodd" clip-rule="evenodd" d="M20.001 6.16699C21.0883 6.16699 21.6759 6.16594 22.1885 6.22754C23.3186 6.36342 24.3826 6.72063 25.335 7.25586C25.0367 7.45908 24.7606 7.69222 24.5098 7.9502C23.7576 7.57635 22.935 7.32486 22.0684 7.2207C21.6301 7.16807 21.1159 7.16699 20.001 7.16699C18.8862 7.16699 18.372 7.16808 17.9337 7.2207C14.8055 7.59663 12.2456 9.88757 11.5264 12.9551C11.4257 13.385 11.3674 13.8966 11.2442 15.0049L10.8243 18.7813C10.6926 19.9666 10.6226 20.6101 10.4571 21.2324C10.3615 21.5919 10.2425 21.9452 10.1007 22.2891C9.85513 22.8843 9.52089 23.4383 8.9073 24.4609L7.24714 27.2285C6.83561 27.9144 6.55716 28.3807 6.40925 28.7373C6.26299 29.0902 6.30417 29.1977 6.3321 29.2471C6.36028 29.2966 6.4321 29.3865 6.80867 29.4424C7.19059 29.499 7.73354 29.5 8.53328 29.5H31.4688C32.2686 29.5 32.8115 29.499 33.1934 29.4424C33.5703 29.3864 33.6419 29.2965 33.67 29.2471C33.6979 29.1977 33.739 29.0901 33.5928 28.7373C33.4449 28.3807 33.1664 27.9143 32.755 27.2285L31.0948 24.4609C30.4812 23.4384 30.147 22.8843 29.9014 22.2891C29.7596 21.9452 29.6406 21.5919 29.545 21.2324C29.3795 20.6101 29.3095 19.9666 29.1778 18.7813L28.9747 16.96C29.313 16.9194 29.6413 16.8479 29.9571 16.7471L30.171 18.6709C30.3058 19.8846 30.3689 20.442 30.5108 20.9756C30.5952 21.2927 30.7011 21.6048 30.8262 21.9082C31.0367 22.4184 31.3241 22.9004 31.9522 23.9473L33.6124 26.7139C34.0063 27.3704 34.3325 27.9121 34.5157 28.3535C34.7001 28.7983 34.7993 29.2815 34.5401 29.7393C34.2809 30.197 33.8162 30.3609 33.3399 30.4316C32.8671 30.5018 32.2348 30.5 31.4688 30.5H8.53328C7.76733 30.5 7.13503 30.5018 6.66218 30.4316C6.18586 30.361 5.72129 30.1969 5.46199 29.7393C5.2028 29.2814 5.30194 28.7984 5.4864 28.3535C5.66958 27.912 5.99576 27.3705 6.38972 26.7139L8.04988 23.9473C8.67802 22.9004 8.96535 22.4184 9.17585 21.9082C9.30099 21.6048 9.40693 21.2928 9.49128 20.9756C9.63315 20.442 9.69627 19.8846 9.83113 18.6709L10.2501 14.8945C10.3701 13.8143 10.4351 13.2301 10.5528 12.7275C11.3678 9.25096 14.2683 6.65372 17.8135 6.22754C18.3262 6.16595 18.9138 6.16699 20.001 6.16699ZM27.0968 8.57129C28.2364 9.67871 29.0696 11.1076 29.4493 12.7275C29.5594 13.1977 29.6216 13.7392 29.7276 14.6914C29.4244 14.8314 29.0981 14.9293 28.754 14.9727C28.6333 13.8865 28.5754 13.3808 28.4757 12.9551C28.119 11.4339 27.309 10.1039 26.2022 9.10352C26.4683 8.88193 26.7701 8.702 27.0968 8.57129Z" fill="white"/>
<path d="M15.1704 30.6764C15.4552 31.9168 16.083 33.0128 16.9562 33.7946C17.8294 34.5763 18.8993 35 20 35C21.1007 35 22.1706 34.5763 23.0438 33.7946C23.917 33.0128 24.5448 31.9168 24.8296 30.6764" stroke="white" stroke-linecap="round"/>
<circle cx="28.3333" cy="11.6667" r="3.33333" fill="white"/>
</svg>
