<svg width="40" height="40" viewBox="0 0 40 40" fill="none" xmlns="http://www.w3.org/2000/svg">
<path d="M23.75 6.66663H16.25C10.9467 6.66663 8.29505 6.66663 6.64752 8.3403C5 10.014 5 12.7077 5 18.0952V21.9047C5 27.2922 5 29.9859 6.64752 31.6596C8.29505 33.3333 10.9467 33.3333 16.25 33.3333H23.75C29.0533 33.3333 31.705 33.3333 33.3525 31.6596C35 29.9859 35 27.2922 35 21.9047V18.0952C35 12.7077 35 10.014 33.3525 8.3403C31.705 6.66663 29.0533 6.66663 23.75 6.66663Z" stroke="white"/>
<path d="M11.666 13.3334H16.666" stroke="white" stroke-linecap="round"/>
<path d="M25 24.6666V22C25 21.0572 25 20.5857 25.2929 20.2929C25.5858 20 26.0572 20 27 20H33C33.9428 20 34.4142 20 34.7071 20.2929C35 20.5857 35 21.0572 35 22V24.6666C35 25.6094 35 26.0808 34.7071 26.3737C34.4142 26.6666 33.9428 26.6666 33 26.6666H27C26.0572 26.6666 25.5858 26.6666 25.2929 26.3737C25 26.0808 25 25.6094 25 24.6666Z" stroke="white"/>
</svg>
